Coordinates
version=1
nRows=19
nColumns=24
inDegrees=yes

Units are S.I. units (second, meters, Newtons, ...)
Angles are in degrees.

endheader
time	pelvis_tilt	pelvis_list	pelvis_rotation	pelvis_tx	pelvis_ty	pelvis_tz	hip_flexion_r	hip_adduction_r	hip_rotation_r	knee_angle_r	ankle_angle_r	subtalar_angle_r	mtp_angle_r	hip_flexion_l	hip_adduction_l	hip_rotation_l	knee_angle_l	ankle_angle_l	subtalar_angle_l	mtp_angle_l	lumbar_extension	lumbar_bending	lumbar_rotation
      5.45500000	     -7.61956693	     -5.12197788	      3.22279510	     -0.77937098	      0.00091655	     -0.27860001	     10.53838211	      9.34832096	      4.95740662	    -11.31719553	      1.18378939	     -3.11739185	     10.64097186	     27.17022527	     -6.57873608	      1.46462068	    -60.02387209	     -9.88260347	     -6.82813502	     21.16449357	      6.87273583	      4.40359629	      2.19427804
      5.46000000	     -7.62362145	     -4.90616251	      3.03607713	     -0.77480120	      0.00120759	     -0.27806291	     10.07154998	      9.18630400	      5.15669807	    -11.05955242	      1.36478527	     -3.04107108	     10.66592162	     27.63085979	     -6.32605408	      1.22339397	    -59.28673975	     -9.38595970	     -7.01558936	     20.90302135	      6.77358360	      4.20254728	      2.55881567
      5.46500000	     -7.61860459	     -4.70367564	      2.85818861	     -0.77024833	      0.00144614	     -0.27757210	      9.59950537	      9.03133286	      5.33858255	    -10.80052495	      1.53652119	     -2.97604427	     10.72477101	     28.07009657	     -6.08217862	      1.00336377	    -58.50149804	     -8.90849104	     -7.20883548	     20.56597908	      6.66467309	      4.01837732	      2.90730313
      5.47000000	     -7.57539683	     -4.51939995	      2.69329009	     -0.76571094	      0.00166039	     -0.27710122	      9.09056573	      8.89410188	      5.46578796	    -10.53308640	      1.67796664	     -2.94583533	     10.82938426	     28.45960936	     -5.85398826	      0.80450548	    -57.68325438	     -8.40167915	     -7.37365620	     19.97005452	      6.51106260	      3.85246744	      3.29502344
      5.47500000	     -7.58298506	     -4.34581531	      2.51976958	     -0.76117220	      0.00176712	     -0.27665346	      8.64225360	      8.76101041	      5.66255594	    -10.28251199	      1.83726995	     -2.90097690	     10.94708051	     28.88447065	     -5.63986851	      0.61642444	    -56.79913476	     -7.98019604	     -7.57085525	     19.55579053	      6.42299287	      3.69413729	      3.59265077
      5.48000000	     -7.56015650	     -4.17351335	      2.35800494	     -0.75665132	      0.00185434	     -0.27624357	      8.16575067	      8.62610318	      5.84030899	    -10.03284216	      1.98429982	     -2.88943174	     11.07546226	     29.25785245	     -5.41999654	      0.45435722	    -55.86479537	     -7.57426236	     -7.76691897	     19.02834519	      6.29602998	      3.54436471	      3.91059970
      5.48500000	     -7.52840068	     -4.02132715	      2.19278067	     -0.75214217	      0.00189858	     -0.27583019	      7.69073898	      8.51365247	      6.02196803	     -9.79972193	      2.12258443	     -2.89655687	     11.21111918	     29.60607462	     -5.22888771	      0.29905630	    -54.88462040	     -7.18303542	     -7.94913032	     18.40970778	      6.16412090	      3.40655412	      4.23083240
      5.49000000	     -7.46986480	     -3.88812033	      2.03121765	     -0.74767218	      0.00190009	     -0.27545619	      7.19675567	      8.42044571	      6.17799026	     -9.57240712	      2.24910096	     -2.95287738	     11.36111319	     29.91808027	     -5.05571418	      0.16431721	    -53.88237840	     -6.76831503	     -8.08724001	     17.58330490	      5.99278405	      3.29772085	      4.60737972
      5.49500000	     -7.42243221	     -3.76442014	      1.90116993	     -0.74315163	      0.00186162	     -0.27512944	      6.71210257	      8.32948889	      6.31440122	     -9.33991074	      2.32151690	     -3.04556481	     11.52438553	     30.22283616	     -4.88373431	      0.05868667	    -52.84423210	     -6.22986508	     -8.04312286	     16.48254105	      5.85016152	      3.18781502	      4.84731541
      5.50000000	     -7.45231714	     -3.64612701	      1.71057584	     -0.73869583	      0.00169372	     -0.27476688	      6.34109449	      8.24687560	      6.54469073	     -9.17540770	      2.51415316	     -3.05838054	     11.59839572	     30.58215385	     -4.74690335	     -0.07735663	    -51.70967263	     -6.05648987	     -8.28194798	     16.07080268	      5.78254729	      3.09668129	      5.17188147
      5.50500000	     -7.35928867	     -3.52729566	      1.53400595	     -0.73425848	      0.00162027	     -0.27442711	      5.83973356	      8.16920174	      6.75025492	     -9.00980450	      2.65641459	     -3.16524304	     11.62273172	     30.78193120	     -4.61057887	     -0.20374135	    -50.54610712	     -5.71741424	     -8.37036200	     15.17333404	      5.56945104	      3.00459274	      5.53954965
      5.51000000	     -7.35868521	     -3.42098194	      1.33527596	     -0.72980598	      0.00144991	     -0.27411051	      5.44821400	      8.09566936	      7.01039951	     -8.87134761	      2.80853174	     -3.20466154	     11.62821889	     31.05579215	     -4.49601859	     -0.32434486	    -49.32154687	     -5.51368377	     -8.47478077	     14.47346117	      5.46634588	      2.92722079	      5.85557043
      5.51500000	     -7.31705788	     -3.31802166	      1.14634692	     -0.72535278	      0.00126759	     -0.27381217	      5.01662420	      8.02738705	      7.26386915	     -8.74134368	      2.97051055	     -3.29972960	     11.58264377	     31.26344534	     -4.39280791	     -0.45308782	    -48.05875547	     -5.27503245	     -8.51660296	     13.67420715	      5.31786735	      2.85503710	      6.17547302
      5.52000000	     -7.29022950	     -3.23289519	      0.95851384	     -0.72090171	      0.00102221	     -0.27353811	      4.61087128	      7.97674214	      7.51554387	     -8.63044215	      3.14365011	     -3.41045925	     11.49795226	     31.47035462	     -4.31074512	     -0.56922383	    -46.76506841	     -5.04092675	     -8.50870040	     12.85316576	      5.18436053	      2.80283976	      6.49291133
      5.52500000	     -7.27851161	     -3.15364811	      0.76619587	     -0.71643868	      0.00073303	     -0.27325649	      4.22962016	      7.93155779	      7.77981399	     -8.53907821	      3.32414573	     -3.51341112	     11.39582115	     31.66708065	     -4.24362671	     -0.68266782	    -45.42318284	     -4.85335863	     -8.48119499	     12.10685767	      5.06986329	      2.74814259	      6.79712498
      5.53000000	     -7.29909824	     -3.07652193	      0.59068029	     -0.71191906	      0.00036272	     -0.27299903	      3.88264881	      7.88450608	      8.02926557	     -8.45267738	      3.52766335	     -3.61627958	     11.31833404	     31.87472350	     -4.18195728	     -0.80178367	    -44.03296287	     -4.72282847	     -8.43422781	     11.54082928	      5.00563736	      2.68650364	      7.03592585
      5.53500000	     -7.24911512	     -3.02490462	      0.37998167	     -0.70751065	      0.00004754	     -0.27276904	      3.48467434	      7.86736436	      8.32106448	     -8.40776807	      3.69522713	     -3.75510803	     11.13013530	     31.98725957	     -4.15211884	     -0.89699401	    -42.62822081	     -4.53263361	     -8.33520592	     10.72479979	      4.83093457	      2.67991003	      7.40955919
      5.54000000	     -7.29379455	     -2.95967952	      0.20592668	     -0.70295829	     -0.00040977	     -0.27255863	      3.17787339	      7.82732810	      8.56695043	     -8.35420636	      3.90805884	     -3.84725218	     11.02726928	     32.17698551	     -4.10672076	     -1.00290188	    -41.17460823	     -4.41996872	     -8.20633353	     10.18784326	      4.79678880	      2.63263959	      7.64098391
      5.54500000	     -7.24149545	     -2.92463147	      0.05898090	     -0.69846714	     -0.00081254	     -0.27242789	      2.77580999	      7.82101261	      8.82412210	     -8.32262124	      4.12249089	     -4.02507242	     10.65606161	     32.25783965	     -4.06586663	     -1.03321196	    -39.74465342	     -4.07039374	     -7.87798834	      9.13409131	      4.63538809	      2.62809490	      7.90689297
